<svg width="500" height="500" viewBox="0 0 500 500" fill="none" xmlns="http://www.w3.org/2000/svg">
<rect width="500" height="500" rx="50" fill="#2562FF"/>
<path d="M68.2422 219.95L61.9722 311.525C61.8622 313.175 61.2572 314 60.1572 314H51.0822C44.9222 314 40.5222 312.79 37.8822 310.37C35.2422 307.95 33.9222 304.485 33.9222 299.975C33.9222 298.325 33.9772 295.85 34.0872 292.55C34.3072 289.25 34.5822 285.4 34.9122 281C35.2422 276.49 35.5722 271.65 35.9022 266.48C36.3422 261.2 36.7822 255.92 37.2222 250.64C37.6622 245.25 38.0472 239.915 38.3772 234.635C38.8172 229.355 39.2022 224.46 39.5322 219.95H13.1322C11.9222 219.95 11.3172 219.18 11.3172 217.64L11.8122 208.4C11.9222 206.97 12.1422 205.595 12.4722 204.275C12.9122 202.845 13.5722 201.58 14.4522 200.48C15.3322 199.38 16.4322 198.5 17.7522 197.84C19.1822 197.18 20.8872 196.85 22.8672 196.85H96.6222C97.2822 196.85 97.8872 197.015 98.4372 197.345C98.9872 197.675 99.2622 198.28 99.2622 199.16L98.6022 208.895C98.3822 212.195 97.4472 214.89 95.7972 216.98C94.2572 218.96 91.0122 219.95 86.0622 219.95H68.2422ZM108.345 284.63C112.965 284.63 116.265 285.785 118.245 288.095C120.225 290.295 121.215 293.43 121.215 297.5C121.215 299.15 120.995 301.075 120.555 303.275C120.115 305.365 119.29 307.345 118.08 309.215C116.98 310.975 115.385 312.515 113.295 313.835C111.205 315.045 108.455 315.65 105.045 315.65C99.9849 315.65 96.5749 314.385 94.8149 311.855C93.0549 309.215 92.1749 305.97 92.1749 302.12C92.1749 299.92 92.4499 297.775 92.9999 295.685C93.5499 293.595 94.4299 291.725 95.6399 290.075C96.8499 288.425 98.4999 287.105 100.59 286.115C102.68 285.125 105.265 284.63 108.345 284.63ZM219.195 195.2C229.535 195.2 237.18 197.455 242.13 201.965C247.19 206.475 249.72 212.36 249.72 219.62C249.72 225.78 248.015 230.51 244.605 233.81C241.195 237 236.3 238.595 229.92 238.595C227.94 238.595 226.675 238.43 226.125 238.1C225.575 237.66 225.3 236.835 225.3 235.625C225.3 234.525 225.19 233.095 224.97 231.335C224.86 229.575 224.475 227.87 223.815 226.22C223.155 224.57 222.11 223.195 220.68 222.095C219.25 220.885 217.27 220.28 214.74 220.28C211.22 220.28 208.085 221.38 205.335 223.58C202.585 225.67 201.21 228.42 201.21 231.83C201.21 234.8 202.31 237.22 204.51 239.09C206.82 240.96 209.68 242.72 213.09 244.37C216.5 245.91 220.185 247.505 224.145 249.155C228.215 250.805 231.955 253.005 235.365 255.755C238.775 258.395 241.58 261.75 243.78 265.82C246.09 269.78 247.245 274.84 247.245 281C247.245 285.84 246.42 290.405 244.77 294.695C243.23 298.875 240.865 302.56 237.675 305.75C234.595 308.83 230.635 311.25 225.795 313.01C221.065 314.77 215.51 315.65 209.13 315.65C203.63 315.65 198.515 315.045 193.785 313.835C189.165 312.625 185.095 311.14 181.575 309.38C178.165 307.51 175.47 305.53 173.49 303.44C171.51 301.24 170.52 299.26 170.52 297.5C170.52 290.24 170.905 285.015 171.675 281.825C172.555 278.635 174.095 277.04 176.295 277.04C177.835 277.04 179.43 277.7 181.08 279.02C182.84 280.34 184.82 281.825 187.02 283.475C189.22 285.125 191.75 286.61 194.61 287.93C197.58 289.25 200.99 289.91 204.84 289.91C206.38 289.91 207.865 289.8 209.295 289.58C210.835 289.25 212.155 288.755 213.255 288.095C214.465 287.435 215.4 286.555 216.06 285.455C216.83 284.355 217.215 283.035 217.215 281.495C217.215 278.745 216.17 276.545 214.08 274.895C211.99 273.245 209.35 271.76 206.16 270.44C202.97 269.01 199.505 267.58 195.765 266.15C192.135 264.61 188.725 262.575 185.535 260.045C182.345 257.405 179.705 254.05 177.615 249.98C175.525 245.91 174.48 240.685 174.48 234.305C174.48 227.155 175.8 221.105 178.44 216.155C181.19 211.205 184.655 207.19 188.835 204.11C193.125 200.92 197.91 198.665 203.19 197.345C208.58 195.915 213.915 195.2 219.195 195.2ZM298.398 315.65C290.808 315.65 284.483 314.605 279.423 312.515C274.473 310.315 270.513 307.345 267.543 303.605C264.573 299.865 262.483 295.52 261.273 290.57C260.063 285.51 259.458 280.12 259.458 274.4C259.458 267.8 260.228 261.365 261.768 255.095C263.418 248.715 266.168 243.05 270.018 238.1C273.868 233.15 278.928 229.19 285.198 226.22C291.578 223.14 299.498 221.6 308.958 221.6C322.818 221.6 332.718 225.01 338.658 231.83C344.708 238.54 347.733 248 347.733 260.21C347.733 263.62 347.458 267.415 346.908 271.595C346.468 275.665 345.533 279.735 344.103 283.805C342.783 287.875 340.913 291.835 338.493 295.685C336.183 299.535 333.213 302.945 329.583 305.915C325.953 308.885 321.553 311.25 316.383 313.01C311.323 314.77 305.328 315.65 298.398 315.65ZM306.153 243.545C301.973 243.545 298.618 244.645 296.088 246.845C293.668 248.935 291.798 251.52 290.478 254.6C289.268 257.57 288.443 260.76 288.003 264.17C287.673 267.47 287.508 270.275 287.508 272.585C287.508 279.845 288.663 285.18 290.973 288.59C293.283 292 296.583 293.705 300.873 293.705C304.723 293.705 307.858 292.495 310.278 290.075C312.808 287.655 314.733 284.74 316.053 281.33C317.483 277.92 318.418 274.345 318.858 270.605C319.408 266.865 319.683 263.73 319.683 261.2C319.683 255.7 318.638 251.41 316.548 248.33C314.568 245.14 311.103 243.545 306.153 243.545ZM394.206 256.91C393.986 260.21 393.711 263.785 393.381 267.635C393.051 271.485 392.721 275.39 392.391 279.35C392.061 283.2 391.731 286.995 391.401 290.735C391.181 294.475 390.961 297.775 390.741 300.635C390.521 303.495 390.301 305.86 390.081 307.73C389.971 309.6 389.916 310.59 389.916 310.7C389.806 312.02 389.531 312.9 389.091 313.34C388.651 313.78 387.716 314 386.286 314H380.346C374.406 314 370.226 312.625 367.806 309.875C365.496 307.015 364.341 302.78 364.341 297.17C364.341 296.51 364.396 294.86 364.506 292.22C364.726 289.58 364.946 286.445 365.166 282.815C365.496 279.075 365.826 274.95 366.156 270.44C366.486 265.93 366.816 261.42 367.146 256.91H359.391C358.181 256.91 357.576 256.305 357.576 255.095C357.576 254.215 357.631 252.95 357.741 251.3C357.851 249.54 357.961 247.835 358.071 246.185C358.181 244.865 358.346 243.545 358.566 242.225C358.896 240.795 359.391 239.585 360.051 238.595C360.821 237.495 361.921 236.615 363.351 235.955C364.781 235.185 366.651 234.745 368.961 234.635L369.621 228.035C370.281 220.885 371.601 214.89 373.581 210.05C375.671 205.21 378.366 201.36 381.666 198.5C384.966 195.53 388.871 193.44 393.381 192.23C398.001 190.91 403.116 190.25 408.726 190.25C414.226 190.25 418.901 190.745 422.751 191.735C426.711 192.725 429.901 194.1 432.321 195.86C434.741 197.62 436.501 199.71 437.601 202.13C438.701 204.55 439.251 207.135 439.251 209.885C439.251 215.605 437.436 219.675 433.806 222.095C430.286 224.515 425.501 225.725 419.451 225.725C417.801 225.725 416.646 225.615 415.986 225.395C415.436 225.065 415.161 224.405 415.161 223.415C415.161 219.785 414.831 216.925 414.171 214.835C413.511 212.745 411.696 211.7 408.726 211.7C406.526 211.7 404.656 212.36 403.116 213.68C401.576 215 400.311 216.76 399.321 218.96C398.331 221.05 397.561 223.47 397.011 226.22C396.571 228.97 396.186 231.775 395.856 234.635H414.831C416.591 234.635 417.471 235.405 417.471 236.945L416.811 245.855C416.591 249.155 415.656 251.85 414.006 253.94C412.466 255.92 409.221 256.91 404.271 256.91H394.206ZM469.969 245.525C469.639 249.705 469.254 253.83 468.814 257.9C468.484 261.97 468.154 265.82 467.824 269.45C467.494 273.08 467.219 276.325 466.999 279.185C466.889 282.045 466.834 284.245 466.834 285.785C466.834 288.645 467.164 290.57 467.824 291.56C468.484 292.44 469.584 292.88 471.124 292.88C472.334 292.88 473.379 292.66 474.259 292.22C475.139 291.78 475.964 291.285 476.734 290.735C477.504 290.185 478.164 289.69 478.714 289.25C479.374 288.81 480.089 288.59 480.859 288.59C481.629 288.59 482.344 289.03 483.004 289.91C483.664 290.79 483.994 292.825 483.994 296.015C483.994 302.065 482.344 306.85 479.044 310.37C475.744 313.89 470.079 315.65 462.049 315.65C454.129 315.65 448.244 313.835 444.394 310.205C440.654 306.465 438.784 300.8 438.784 293.21C438.784 291.56 438.839 289.635 438.949 287.435C439.169 285.125 439.444 282.155 439.774 278.525C440.104 274.895 440.489 270.44 440.929 265.16C441.479 259.88 442.029 253.335 442.579 245.525H433.834C432.954 245.525 432.404 245.36 432.184 245.03C432.074 244.59 432.019 243.985 432.019 243.215L432.514 234.8C432.624 233.37 432.789 231.995 433.009 230.675C433.339 229.245 433.889 227.98 434.659 226.88C435.539 225.78 436.749 224.9 438.289 224.24C439.829 223.58 441.864 223.25 444.394 223.25C445.164 221.27 446.044 218.905 447.034 216.155C448.024 213.405 449.014 210.765 450.004 208.235C450.994 205.595 451.929 203.395 452.809 201.635C453.799 199.875 454.679 198.995 455.449 198.995H460.234C464.854 198.995 468.044 200.425 469.804 203.285C471.564 206.145 472.444 209.555 472.444 213.515C472.444 215.715 472.279 218.96 471.949 223.25H489.274C491.034 223.25 491.914 224.02 491.914 225.56L491.254 234.47C491.034 237.77 490.099 240.465 488.449 242.555C486.909 244.535 483.664 245.525 478.714 245.525H469.969Z" fill="white"/>
</svg>
