<svg width="44" height="40" viewBox="0 0 44 40" fill="none" xmlns="http://www.w3.org/2000/svg">
<path d="M32.9551 14.1607C32.9701 14.1607 32.985 14.1606 33 14.1606C37.9706 14.1606 42 18.1975 42 23.1771C42 27.8182 38.5 31.6403 34 32.1386M32.9551 14.1607C32.9848 13.8307 33 13.4965 33 13.1588C33 7.07251 28.0751 2.13861 22 2.13861C16.2465 2.13861 11.5247 6.56395 11.0408 12.2024M32.9551 14.1607C32.7507 16.4338 31.8572 18.5078 30.4857 20.1716M11.0408 12.2024C5.96796 12.6861 2 16.9664 2 22.1753C2 27.0221 5.43552 31.065 10 31.9932M11.0408 12.2024C11.3565 12.1723 11.6765 12.157 12 12.157C14.2516 12.157 16.3295 12.9025 18.001 14.1606" stroke="#141B34" stroke-width="3" stroke-linecap="round" stroke-linejoin="round"/>
<path d="M22 38.1387L22 22.1387M22 38.1387C20.5995 38.1387 17.9831 34.1501 17 33.1387M22 38.1387C23.4005 38.1387 26.0169 34.1501 27 33.1387" stroke="#141B34" stroke-width="3" stroke-linecap="round" stroke-linejoin="round"/>
</svg>
