<svg width="20" height="20" viewBox="0 0 20 20" fill="none" xmlns="http://www.w3.org/2000/svg">
<path d="M6.66675 6.66667H13.3334" stroke="white" stroke-width="1.5" stroke-linecap="round"/>
<path fill-rule="evenodd" clip-rule="evenodd" d="M3.33325 5.00001C3.33325 4.07954 4.07944 3.33334 4.99992 3.33334H14.9999C15.9204 3.33334 16.6666 4.07954 16.6666 5.00001V11.6667C16.6666 12.5872 15.9204 13.3333 14.9999 13.3333H10.1725C10.062 13.3333 9.956 13.3773 9.87792 13.4553L7.37788 15.9553C7.11539 16.2178 6.66659 16.0319 6.66659 15.6608V13.75C6.66659 13.5199 6.48004 13.3333 6.24992 13.3333H4.99992C4.07944 13.3333 3.33325 12.5872 3.33325 11.6667V5.00001Z" stroke="white" stroke-width="1.5" stroke-linecap="round"/>
<path d="M6.66675 10H9.16675" stroke="white" stroke-width="1.5" stroke-linecap="round"/>
</svg>
