<svg width="100" height="100" viewBox="0 0 100 100" fill="none" xmlns="http://www.w3.org/2000/svg">
<rect width="100" height="100" rx="30" fill="url(#paint0_linear_4_357)"/>
<g opacity="0.25" filter="url(#filter0_f_4_357)">
<rect x="15.0655" y="50" width="68.1223" height="42.5764" rx="21.2882" fill="url(#paint1_linear_4_357)"/>
</g>
<rect x="13" y="13" width="73.7991" height="73.7991" rx="30" fill="url(#paint2_linear_4_357)"/>
<path d="M36.7266 26.699C35.7319 26.0008 34.4013 26.0271 33.4264 26.7583C32.2473 27.6476 30.9101 28.8464 29.6256 30.4339C29.5598 30.513 29.5005 30.592 29.4346 30.6711C26.7141 34.1425 25.5548 38.5822 26.1542 42.9495C26.2333 43.5094 26.3254 44.0825 26.444 44.6753C28.1567 53.2386 33.321 58.607 37.4577 62.803C42.0884 67.4931 47.9838 73.4742 56.6657 74.0144C58.3059 74.1132 59.7157 74.0012 60.763 73.8563C61.0792 73.8102 61.3953 73.7772 61.7115 73.7443C63.0816 73.6257 65.7823 73.158 68.4238 71.1885C70.5778 69.5812 71.7833 67.6578 72.4354 66.2943C72.824 65.484 72.8108 64.5486 72.409 63.745C71.7503 62.4342 70.6371 60.7018 68.8191 59.1143C68.5161 58.8508 68.213 58.6071 67.9165 58.3831C66.9153 57.6322 66.0326 57.1711 65.7296 57.0196C65.5188 56.9208 62.6666 55.577 60.1239 56.3543C56.7184 57.395 56.8963 61.321 53.9321 61.8414C52.7069 62.0587 51.732 61.5449 49.7822 60.5173C48.9654 60.0892 47.0156 58.9957 43.8999 55.5902C41.4363 52.896 39.8555 50.1492 38.841 47.9096C38.4063 46.9413 38.314 44.728 39.4866 43.2063C40.0267 42.5015 40.4482 42.5081 41.7063 41.0721C42.4836 40.196 42.9184 39.511 43.228 38.7139C43.228 38.7139 43.6693 38.1013 43.564 37.4821C43.3136 36.0264 42.7801 34.0239 41.5548 31.916C40.0925 29.3997 38.2217 27.7332 36.7396 26.6924L36.7266 26.699Z" fill="white"/>
<path d="M72.3761 44.2933C71.6976 44.2933 71.0587 43.8915 70.7821 43.2262C69.3988 39.9063 67.4489 36.9091 64.9656 34.3138C62.5876 31.8239 59.8144 29.795 56.7185 28.28C55.8622 27.8584 55.5065 26.8242 55.9281 25.9679C56.3496 25.1116 57.3838 24.7559 58.2402 25.1774C61.705 26.8769 64.8075 29.1429 67.4621 31.9293C70.2353 34.8342 72.4222 38.187 73.9635 41.8956C74.3324 42.7783 73.9109 43.7861 73.0348 44.155C72.8174 44.2472 72.5935 44.2867 72.3695 44.2867L72.3761 44.2933Z" fill="white"/>
<defs>
<filter id="filter0_f_4_357" x="9.60549" y="44.54" width="79.0423" height="53.4964" filterUnits="userSpaceOnUse" color-interpolation-filters="sRGB">
<feFlood flood-opacity="0" result="BackgroundImageFix"/>
<feBlend mode="normal" in="SourceGraphic" in2="BackgroundImageFix" result="shape"/>
<feGaussianBlur stdDeviation="2.73" result="effect1_foregroundBlur_4_357"/>
</filter>
<linearGradient id="paint0_linear_4_357" x1="8.40611" y1="6.55022" x2="82.6419" y2="100" gradientUnits="userSpaceOnUse">
<stop stop-color="#FBFBFC"/>
<stop offset="1" stop-color="#DBDDE8"/>
</linearGradient>
<linearGradient id="paint1_linear_4_357" x1="49.1266" y1="91.3324" x2="49.1266" y2="50" gradientUnits="userSpaceOnUse">
<stop stop-color="#0062E0"/>
<stop offset="1" stop-color="#19AFFF"/>
</linearGradient>
<linearGradient id="paint2_linear_4_357" x1="55" y1="89" x2="20.5" y2="13" gradientUnits="userSpaceOnUse">
<stop offset="0.0729167" stop-color="#1376C6"/>
<stop offset="0.973958" stop-color="#2196F3"/>
</linearGradient>
</defs>
</svg>
